# xmcd
#
# Track frame offsets:
#  150
#  16773
#  33915
#  53748
#
# Disc length: 894 seconds
#
# Revision: 5
# Processed by: cddbd v1.5.2PL0 Copyright (c) Steve Scherf et al.
# Submitted via: Collectorz.com_Music_Collector 6.11
#
DISCID=22037c04
DTITLE=Mark Knopfler - What It Is
DYEAR=2000
DGENRE=Rock
TTITLE0=What It Is (Radio Edit)
TTITLE1=The Long Highway
TTITLE2=Let's See You
TTITLE3=Camerado
EXTD=
EXTT0=
EXTT1=
EXTT2=
EXTT3=
PLAYORDER=
